<svg width="44" height="44" viewBox="0 0 44 44" fill="none" xmlns="http://www.w3.org/2000/svg">
<g id="adobe-after-effects 1" clip-path="url(#clip0_35_39)">
<path id="Vector" d="M15.6567 19.6717C15.4733 19.1034 15.3083 18.5534 15.125 17.985C14.9417 17.4167 14.7767 16.885 14.63 16.3534C14.4833 15.84 14.355 15.3634 14.2267 14.9234H14.19C14.025 15.7117 13.8233 16.5 13.5667 17.2884C13.2917 18.1684 13.0167 19.085 12.7233 20.0017C12.485 20.9367 12.1917 21.7984 11.9167 22.5684H16.5733C16.4633 22.1834 16.3167 21.725 16.1517 21.2484C15.9867 20.7534 15.8217 20.2217 15.6567 19.6717ZM31.3867 19.14C30.3783 19.085 29.425 19.6167 28.9483 20.5334C28.7283 20.955 28.6 21.395 28.545 21.8534H32.4115C32.8882 21.8534 33.2365 21.8534 33.4565 21.835C33.6032 21.8167 33.7498 21.78 33.8782 21.6884V21.505C33.8782 21.2667 33.8397 21.0467 33.7663 20.8267C33.44 19.8 32.4683 19.1034 31.3867 19.14ZM36.2083 0.550049H7.79167C3.48333 0.550049 0 4.03338 0 8.34171V35.6584C0 39.9667 3.48333 43.45 7.79167 43.45H36.2083C40.5167 43.45 44 39.9667 44 35.6584V8.34171C44 4.03338 40.5167 0.550049 36.2083 0.550049ZM23.3017 30.8202H19.47C19.3417 30.8385 19.2133 30.745 19.1767 30.6185L17.6733 26.2185H10.8533L9.46 30.5452C9.42333 30.7102 9.27667 30.8202 9.11167 30.8019H5.665C5.46333 30.8019 5.40833 30.6919 5.46333 30.4719L11.3667 13.5484C11.4217 13.365 11.4767 13.2 11.55 12.98C11.6233 12.595 11.66 12.1917 11.66 11.7884C11.6417 11.6967 11.715 11.605 11.8067 11.5867H16.555C16.6833 11.5867 16.775 11.6417 16.7933 11.7334L23.485 30.525C23.54 30.7267 23.4868 30.8202 23.3017 30.8202ZM37.6952 23.5034C37.6567 23.8499 37.6383 24.1084 37.62 24.2734C37.6017 24.4017 37.4935 24.5117 37.3633 24.5117C37.2533 24.5117 37.0517 24.53 36.7583 24.5502C36.4668 24.5869 36.1167 24.6034 35.6968 24.6034C35.2752 24.6034 34.8333 24.53 34.3585 24.53H28.5468C28.6183 25.0984 28.8035 25.6667 29.1152 26.1617C29.447 26.6585 29.9053 27.0417 30.4517 27.2635C31.185 27.5752 31.9935 27.7402 32.8002 27.7219C33.4418 27.7017 34.0817 27.6485 34.705 27.5202C35.2752 27.4487 35.8233 27.302 36.3385 27.0985C36.4302 27.027 36.4852 27.0619 36.4852 27.2452V30.052C36.4852 30.1235 36.4668 30.1987 36.4467 30.2702C36.4082 30.3252 36.3733 30.3637 36.3202 30.3985C35.7335 30.6552 35.1285 30.8385 34.4868 30.9485C33.6233 31.1135 32.7635 31.1869 31.8835 31.1685C30.4883 31.1685 29.3168 30.9485 28.3635 30.5269C27.4652 30.14 26.675 29.535 26.0517 28.7852C25.4668 28.0702 25.0433 27.2635 24.7867 26.3835C24.53 25.52 24.4035 24.6217 24.4035 23.705C24.4035 22.7169 24.5502 21.7434 24.8618 20.79C25.1552 19.8734 25.6135 19.03 26.2368 18.2784C26.8418 17.545 27.5917 16.9584 28.4533 16.5367C29.3168 16.115 30.3417 15.9684 31.515 15.9684C32.4885 15.95 33.4583 16.1334 34.3567 16.5367C35.1083 16.8667 35.7683 17.3617 36.2817 18.0034C36.7583 18.6267 37.1433 19.3234 37.3835 20.0934C37.62 20.8267 37.73 21.5784 37.73 22.33C37.73 22.77 37.7117 23.155 37.6952 23.5034Z" fill="#FAF8EC"/>
</g>
<defs>
<clipPath id="clip0_35_39">
<rect width="44" height="44" fill="white"/>
</clipPath>
</defs>
</svg>
