<svg width="49" height="39" viewBox="0 0 49 39" fill="none" xmlns="http://www.w3.org/2000/svg">
<g id="code-solid 1" clip-path="url(#clip0_35_45)">
<path id="Vector" d="M30.074 0.0908905C28.7725 -0.282352 27.4173 0.47175 27.0422 1.76667L17.2422 35.8917C16.867 37.1866 17.625 38.5348 18.9265 38.9081C20.2281 39.2813 21.5833 38.5272 21.9584 37.2323L31.7584 3.1073C32.1336 1.81237 31.3756 0.464133 30.074 0.0908905ZM36.245 9.23913C35.2879 10.1913 35.2879 11.7376 36.245 12.6897L43.082 19.4995L36.2373 26.3092C35.2803 27.2614 35.2803 28.8077 36.2373 29.7598C37.1943 30.712 38.7486 30.712 39.7056 29.7598L48.2806 21.2286C49.2376 20.2764 49.2376 18.7301 48.2806 17.778L39.7056 9.24675C38.7486 8.2946 37.1943 8.2946 36.2373 9.24675L36.245 9.23913ZM12.7633 9.23913C11.8062 8.28698 10.252 8.28698 9.29497 9.23913L0.719971 17.7704C-0.237061 18.7225 -0.237061 20.2688 0.719971 21.221L9.29497 29.7522C10.252 30.7044 11.8062 30.7044 12.7633 29.7522C13.7203 28.8001 13.7203 27.2538 12.7633 26.3016L5.91856 19.4995L12.7633 12.6897C13.7203 11.7376 13.7203 10.1913 12.7633 9.23913Z" fill="#FAF8EC"/>
</g>
<defs>
<clipPath id="clip0_35_45">
<rect width="49" height="39" fill="white"/>
</clipPath>
</defs>
</svg>
