<svg width="29" height="39" viewBox="0 0 29 39" fill="none" xmlns="http://www.w3.org/2000/svg">
<path d="M1.05737 7.29727C1.05737 3.26777 4.29722 0 8.29227 0H20.7079C24.7029 0 27.9428 3.26777 27.9428 7.29727C27.9428 9.84902 26.6438 12.0961 24.6727 13.3986C26.6438 14.7012 27.9428 16.9482 27.9428 19.5C27.9428 23.5295 24.7029 26.7973 20.7079 26.7973H20.5493C18.6764 26.7973 16.9696 26.0812 15.6858 24.9006V31.6266C15.6858 35.7094 12.3628 39 8.33003 39C4.34253 39 1.05737 35.7398 1.05737 31.7027C1.05737 29.151 2.35633 26.9039 4.31987 25.6014C2.35633 24.2988 1.05737 22.0518 1.05737 19.5C1.05737 16.9482 2.35633 14.7012 4.31987 13.3986C2.35633 12.0961 1.05737 9.84902 1.05737 7.29727ZM13.3144 14.5945H8.29227C5.60373 14.5945 3.42873 16.7883 3.42873 19.5C3.42873 22.1965 5.58862 24.3902 8.26206 24.4055C8.26961 24.4055 8.28472 24.4055 8.29227 24.4055H13.3144V14.5945ZM15.6858 19.5C15.6858 22.2117 17.8608 24.4055 20.5493 24.4055H20.7079C23.3889 24.4055 25.5714 22.2117 25.5714 19.5C25.5714 16.7883 23.3889 14.5945 20.7079 14.5945H20.5493C17.8608 14.5945 15.6858 16.7883 15.6858 19.5ZM8.29227 26.7973C8.28472 26.7973 8.26961 26.7973 8.26206 26.7973C5.58862 26.8125 3.42873 29.0063 3.42873 31.7027C3.42873 34.4068 5.63394 36.6082 8.33003 36.6082C11.0714 36.6082 13.3144 34.3688 13.3144 31.6266V26.7973H8.29227ZM8.29227 2.3918C5.60373 2.3918 3.42873 4.58555 3.42873 7.29727C3.42873 10.009 5.60373 12.2027 8.29227 12.2027H13.3144V2.3918H8.29227ZM15.6858 12.2027H20.7079C23.3889 12.2027 25.5714 10.009 25.5714 7.29727C25.5714 4.58555 23.3889 2.3918 20.7079 2.3918H15.6858V12.2027Z" fill="#FAF8EC"/>
</svg>
