<svg width="39" height="39" viewBox="0 0 39 39" fill="none" xmlns="http://www.w3.org/2000/svg">
<path d="M15.8278 13.3429H15.77C15.4764 14.5242 15.1829 16.0244 14.8569 17.1733L13.678 21.3828H18.0655L16.8288 17.1733C16.4774 15.9944 16.1237 14.5242 15.8278 13.3429Z" fill="#FAF8EC"/>
<path d="M36.6097 0H2.38794C1.06799 0 0 1.06799 0 2.38794V36.6121C0 37.9297 1.06799 39 2.38794 39H36.6121C37.9297 39 39 37.9297 39 36.6121V2.38794C39 1.0703 37.9297 0 36.6097 0ZM20.2455 29.832L18.7129 24.7394H13.0331L11.6184 29.832H6.96734L13.0331 9.99099H18.9186L25.0746 29.832H20.2455ZM31.8847 29.832H27.407V15.4373H31.8847V29.832ZM29.6193 13.6712C28.2069 13.6712 27.2637 12.6679 27.2914 11.4312C27.2637 10.1343 28.2069 9.16804 29.6517 9.16804C31.0918 9.16804 32.0049 10.1366 32.0327 11.4312C32.0327 12.6679 31.0918 13.6712 29.6193 13.6712Z" fill="#FAF8EC"/>
</svg>
