<svg width="39" height="39" viewBox="0 0 39 39" fill="none" xmlns="http://www.w3.org/2000/svg">
<g clip-path="url(#clip0_35_29)">
<path d="M13.2277 11.1224C12.2409 11.1224 11.5712 11.2184 11.2229 11.3167V17.6593C11.6382 17.753 12.1449 17.7843 12.8459 17.7843C15.429 17.7843 17.023 16.4783 17.023 14.277C17.0208 12.3034 15.65 11.1224 13.2277 11.1224Z" fill="#FAF8EC"/>
<path d="M36.6134 0.0045166H2.3888C1.06938 0.0045166 0 1.07166 0 2.38662V36.609C0 37.9262 1.06938 38.9956 2.3888 38.9956H36.6134C37.9306 38.9956 39 37.9262 39 36.609V2.38885C39 1.07166 37.9306 0.0045166 36.6134 0.0045166ZM19.8561 19.2534C18.2018 20.8161 15.7438 21.5171 12.8794 21.5171C12.2387 21.5171 11.6672 21.4859 11.2207 21.4211V29.1055H6.40512V7.90543C7.90314 7.65315 10.0062 7.46115 12.9732 7.46115C15.967 7.46115 18.1058 8.03268 19.5368 9.18243C20.9143 10.2674 21.8363 12.0535 21.8363 14.1565C21.8363 16.2595 21.1331 18.0389 19.8561 19.2534ZM27.114 29.4225C25.069 29.4225 23.254 28.9805 22.073 28.3397L22.9325 24.8659C23.8255 25.404 25.6763 26.0425 27.114 26.0425C28.5763 26.0425 29.1836 25.5335 29.1836 24.7342C29.1836 23.9394 28.7058 23.5577 26.8908 22.9504C23.6715 21.8676 22.4257 20.1129 22.457 18.2643C22.457 15.3665 24.944 13.1608 28.8018 13.1608C30.6191 13.1608 32.2444 13.5783 33.1999 14.0538L32.3404 17.4026C31.6394 17.0186 30.3021 16.5118 28.9603 16.5118C27.7838 16.5118 27.1163 16.9896 27.1163 17.7866C27.1163 18.5189 27.7168 18.9006 29.6301 19.5726C32.5949 20.5906 33.8406 22.0909 33.8697 24.3815C33.8697 27.286 31.5702 29.4225 27.114 29.4225Z" fill="#FAF8EC"/>
</g>
<defs>
<clipPath id="clip0_35_29">
<rect width="39" height="39" fill="white"/>
</clipPath>
</defs>
</svg>
