<svg width="44" height="44" viewBox="0 0 44 44" fill="none" xmlns="http://www.w3.org/2000/svg">
<g id="adobepremierepro 1" clip-path="url(#clip0_35_43)">
<path id="Vector" d="M18.6083 15.4367C17.9201 15.1669 17.1837 15.0421 16.445 15.07C15.7787 15.0561 15.112 15.0684 14.4467 15.1067V21.2667L15.1617 21.3034H16.1333C16.8483 21.3034 17.5633 21.1934 18.2417 20.9734C18.8283 20.8084 19.3417 20.46 19.745 20.0017C20.13 19.5434 20.3133 18.92 20.3133 18.1134C20.3547 17.5432 20.2112 16.9749 19.9041 16.4927C19.5969 16.0105 19.1426 15.6402 18.6083 15.4367ZM36.2083 0.550049H7.79167C5.72519 0.550049 3.74335 1.37095 2.28213 2.83218C0.820905 4.2934 0 6.27524 0 8.34172L0 35.6584C0 39.9667 3.48333 43.4501 7.79167 43.4501H36.2083C40.5167 43.4501 44 39.9667 44 35.6584V8.34172C44 4.03338 40.5167 0.550049 36.2083 0.550049ZM23.21 21.9084C22.4767 22.935 21.45 23.705 20.2583 24.145C19.0117 24.6034 17.6367 24.7684 16.1333 24.7684L15.2167 24.75L14.4283 24.7317V30.6167C14.4335 30.647 14.4323 30.6781 14.4248 30.7079C14.4172 30.7377 14.4035 30.7656 14.3845 30.7898C14.3655 30.814 14.3416 30.8339 14.3144 30.8483C14.2873 30.8627 14.2574 30.8713 14.2267 30.8734H10.67C10.5233 30.8734 10.45 30.8 10.45 30.635V11.77C10.45 11.6417 10.505 11.5684 10.6333 11.5684L11.66 11.55L13.0533 11.5134L14.6483 11.4767L16.3167 11.4584C17.82 11.4584 19.0667 11.6417 20.0933 12.0267C21.01 12.3384 21.8533 12.8517 22.55 13.53C23.1367 14.1167 23.595 14.8317 23.8883 15.62C24.1633 16.39 24.31 17.1784 24.31 18.0034C24.31 19.58 23.9433 20.8817 23.21 21.9084ZM35.7133 16.1334V19.7084C35.7133 19.855 35.6217 19.91 35.42 19.91C34.2104 19.8661 33.0067 20.0981 31.9 20.5884C31.5517 20.7534 31.2217 20.9734 30.965 21.2667V30.6167C30.965 30.8001 30.8917 30.8734 30.7267 30.8734H27.115C27.0812 30.8786 27.0468 30.8769 27.0137 30.8686C26.9806 30.8603 26.9494 30.8455 26.9221 30.825C26.8948 30.8045 26.8718 30.7788 26.8546 30.7493C26.8373 30.7198 26.8262 30.6872 26.8217 30.6534V20.4234L26.8033 19.0484L26.7667 17.6184C26.7667 17.1967 26.73 16.7934 26.6933 16.3717C26.6871 16.3283 26.6966 16.2841 26.7201 16.2471C26.7437 16.2101 26.7797 16.1828 26.8217 16.17H30.085C30.2683 16.17 30.415 16.2984 30.4517 16.4634C30.6174 17.01 30.6977 17.5789 30.69 18.15C31.24 17.5084 31.9183 16.9767 32.67 16.5734C33.5222 16.1 34.4818 15.8538 35.4567 15.8584C35.585 15.84 35.695 15.9317 35.7133 16.06V16.1334Z" fill="#FAF8EC"/>
</g>
<defs>
<clipPath id="clip0_35_43">
<rect width="44" height="44" fill="white"/>
</clipPath>
</defs>
</svg>
