<?xml version="1.0" standalone="no"?>
<!DOCTYPE svg PUBLIC "-//W3C//DTD SVG 20010904//EN"
 "http://www.w3.org/TR/2001/REC-SVG-20010904/DTD/svg10.dtd">
<svg version="1.0" xmlns="http://www.w3.org/2000/svg"
 width="200.000000pt" height="200.000000pt" viewBox="0 0 200.000000 200.000000"
 preserveAspectRatio="xMidYMid meet">

<g transform="translate(0.000000,200.000000) scale(0.100000,-0.100000)"
fill="#000000" stroke="none">
<path d="M1151 1644 c-184 -49 -336 -213 -374 -403 l-13 -64 -58 72 c-31 39
-74 82 -94 96 -136 88 -327 36 -396 -108 -75 -157 -30 -265 222 -529 220 -230
387 -330 572 -345 234 -18 483 152 731 498 99 138 112 173 107 275 -4 75 -9
93 -52 180 -39 78 -63 111 -129 177 -121 121 -227 167 -382 166 -44 0 -104 -7
-134 -15z m246 -157 c73 -38 115 -77 172 -162 51 -76 75 -151 64 -196 -15 -59
-203 -303 -299 -388 -229 -202 -400 -212 -631 -35 -86 66 -236 220 -318 328
-50 65 -60 85 -60 118 0 33 7 46 33 69 18 16 44 29 58 29 35 0 78 -24 98 -55
39 -60 199 -235 265 -290 88 -74 176 -125 217 -125 30 0 91 20 106 35 4 4 -29
48 -73 98 -94 108 -119 164 -119 267 0 152 92 280 233 326 68 22 191 13 254
-19z"/>
<path d="M1183 1304 c-46 -23 -73 -71 -73 -129 0 -46 3 -50 79 -128 43 -45 83
-77 89 -73 27 17 132 169 132 192 0 34 -22 73 -64 113 -43 41 -111 52 -163 25z"/>
</g>
</svg>
